<svg width="65" height="65" viewBox="0 0 65 65" fill="none" xmlns="http://www.w3.org/2000/svg">
<path d="M57.6533 64.4992H14.3457C14.2887 63.9082 14.2607 63.3242 14.2607 62.7622C14.2525 59.7886 14.943 56.8546 16.2754 54.1962C17.5636 51.6294 19.4051 49.3807 21.668 47.6122L21.7246 47.6702C21.7419 47.6896 21.7612 47.7089 21.7812 47.7282C21.8863 47.8575 22.0028 47.9766 22.1299 48.0842C22.6523 48.5355 23.3194 48.7839 24.0098 48.7842C24.4256 48.785 24.8366 48.696 25.2148 48.5235C25.5931 48.3509 25.9302 48.0987 26.2021 47.7842C26.6021 47.3972 26.9882 46.9912 27.3662 46.5982L27.3838 46.5792L27.5254 46.4342C27.6374 46.3182 27.7493 46.2012 27.8623 46.0852L28.0439 46.1852L28.0361 46.8272C27.9951 49.4612 27.9597 52.0972 27.9277 54.8872C27.8389 55.4341 27.963 55.9943 28.2734 56.4532C28.4737 56.7501 28.7432 56.9932 29.0596 57.1611C29.3759 57.3291 29.7288 57.4167 30.0869 57.4162C30.5209 57.4165 30.9449 57.2869 31.3047 57.0442C32.3987 56.5162 33.5051 55.9742 34.5811 55.4512L34.6562 55.4152C36.1732 54.6752 37.7419 53.9102 39.2949 53.1652C40.1724 52.7964 40.916 52.1685 41.4268 51.3653C41.9375 50.5622 42.1914 49.6222 42.1533 48.6712C42.1633 47.3712 42.1792 46.0782 42.1982 44.7532V44.6412C42.2182 43.2592 42.2371 41.8312 42.2451 40.4262C42.2325 40.2333 42.2746 40.0407 42.3672 39.8709C42.4598 39.7011 42.5985 39.5611 42.7676 39.4672L42.8408 39.4162C43.9968 38.6282 45.1939 37.8162 46.2939 36.9162C49.8227 34.1877 52.3035 30.3261 53.3174 25.9822C54.107 22.1508 54.1457 18.2026 53.4326 14.3562C53.2516 13.2562 52.9583 12.9442 51.8633 12.7122C49.6853 12.2784 47.4697 12.06 45.249 12.0602C44.923 12.0602 44.5926 12.0602 44.2676 12.0742H44.2002C39.8289 12.0798 35.5846 13.5489 32.1455 16.2472C29.8837 18.0819 27.9323 20.2681 26.3643 22.7222C26.2824 22.8701 26.1622 22.9934 26.0166 23.0792C25.871 23.165 25.7052 23.2103 25.5361 23.2102C25.5068 23.2102 25.4776 23.2102 25.4482 23.2102C23.0132 23.1592 20.5366 23.1292 18.1416 23.0992L17.0889 23.0862C17.0029 23.0812 16.9161 23.0782 16.8311 23.0782C16.0401 23.0765 15.2633 23.2915 14.5859 23.7C13.9086 24.1085 13.3568 24.6948 12.9893 25.3952C11.4833 28.1442 10.0593 30.9522 8.48926 34.0742C8.43117 34.1746 8.38033 34.2793 8.33789 34.3872C8.14241 34.8998 8.15731 35.4688 8.37988 35.9702C8.60246 36.4715 9.01511 36.8645 9.52637 37.0632C9.88117 37.1908 10.2548 37.2561 10.6318 37.2562C12.2128 37.2852 13.8124 37.3062 15.3594 37.3252C16.4704 37.3392 17.6191 37.3542 18.7461 37.3722C18.9591 37.3722 19.1772 37.3932 19.3682 37.4112L19.4502 37.5582C19.2575 37.7349 19.0641 37.9106 18.8701 38.0852L18.8252 38.1252C18.4692 38.4482 18.099 38.7822 17.748 39.1252C17.6211 39.2296 17.5028 39.3447 17.3955 39.4692C17.1468 39.7559 16.9585 40.0893 16.8398 40.4498C16.7212 40.8103 16.6752 41.1909 16.7051 41.5692C16.7327 41.9481 16.8352 42.3177 17.0068 42.6566C17.1785 42.9954 17.416 43.2968 17.7051 43.5432C17.8901 43.7322 18.0701 43.9162 18.2461 44.1002C16.4791 46.3457 14.2372 48.173 11.6816 49.4512C9.03431 50.7741 6.11473 51.4591 3.15527 51.4512C2.26757 51.4506 1.3807 51.3871 0.501953 51.2612V7.36123C0.503806 5.54506 1.22652 3.80382 2.51074 2.5196C3.79496 1.23537 5.5354 0.513084 7.35156 0.51123H57.6523C59.4679 0.513878 61.2078 1.23655 62.4912 2.52071C63.7746 3.80488 64.4965 5.54568 64.498 7.36123V57.6612C64.4933 59.4745 63.7702 61.2121 62.4873 62.4936C61.2044 63.7752 59.4666 64.4963 57.6533 64.4992ZM42.499 26.9672H42.4141C41.9497 26.9618 41.4909 26.8643 41.0645 26.6802C40.6381 26.4962 40.2522 26.2294 39.9297 25.8952C39.6048 25.5633 39.3494 25.1701 39.1777 24.7385C39.0061 24.307 38.9216 23.8456 38.9297 23.3812C38.9406 22.4512 39.3203 21.5634 39.9844 20.9122C40.645 20.2596 41.5362 19.8944 42.4648 19.8962H42.5146C43.452 19.9123 44.345 20.2989 44.998 20.9714C45.6511 21.644 46.0115 22.5478 46 23.4852V23.5122C45.9871 24.4334 45.6109 25.3122 44.9531 25.9572C44.3005 26.6046 43.4183 26.9677 42.499 26.9672Z" fill="#E75336"/>
</svg>
